<svg xmlns="http://www.w3.org/2000/svg" viewBox="0 0 9.9 10.1"><g id="Layer_2" data-name="Layer 2"><g id="Layer_1-2" data-name="Layer 1"><path d="M7.23,0H2.68A2.68,2.68,0,0,0,0,2.68V7.42A2.68,2.68,0,0,0,2.68,10.1H7.23A2.68,2.68,0,0,0,9.9,7.42V2.68A2.68,2.68,0,0,0,7.23,0ZM8.9,7.42A1.68,1.68,0,0,1,7.23,9.1H2.68A1.68,1.68,0,0,1,1,7.42V2.68A1.68,1.68,0,0,1,2.68,1H7.23A1.68,1.68,0,0,1,8.9,2.68Z"/><path d="M7.46,4.54h-2v-2a.51.51,0,0,0-1,0v2h-2a.51.51,0,0,0,0,1h2v2a.51.51,0,0,0,1,0v-2h2a.51.51,0,0,0,0-1Z"/></g></g></svg>